<svg xmlns="http://www.w3.org/2000/svg" viewBox="0 0 500 500"><circle cx="250" cy="250" r="239.56" style="fill:#ffb000"/><path d="M104.68 106.03h23.52v272.63h25.62v21.42h-49.15V106.03ZM170.42 393.15c-5.46-6.3-8.19-15.05-8.19-26.25V139.64c0-11.48 2.73-20.37 8.19-26.67 5.46-6.3 14.35-9.45 26.67-9.45s20.79 3.15 26.25 9.45c5.46 6.3 8.19 15.19 8.19 26.67V366.9c0 11.2-2.73 19.95-8.19 26.25-5.46 6.3-14.22 9.45-26.25 9.45s-21.21-3.15-26.67-9.45Zm35.07-15.12c1.68-2.1 2.52-5.39 2.52-9.87V138.38c0-4.76-.77-8.19-2.31-10.29-1.54-2.1-4.41-3.15-8.61-3.15s-7.14 1.05-8.82 3.15-2.52 5.53-2.52 10.29v229.78c0 4.48.77 7.77 2.31 9.87 1.54 2.1 4.41 3.15 8.61 3.15s7.14-1.05 8.82-3.15ZM257.79 319.43c-3.78-4.76-5.67-12.32-5.67-22.68V139.64c0-11.48 2.66-20.37 7.98-26.67 5.32-6.3 14.14-9.45 26.46-9.45s21.14 3.15 26.46 9.45c5.32 6.3 7.98 15.19 7.98 26.67v55.87h-23.52v-57.13c0-4.76-.77-8.19-2.31-10.29-1.54-2.1-4.41-3.15-8.61-3.15-3.93 0-6.72 1.05-8.4 3.15s-2.52 5.53-2.52 10.29v149.97c0 4.77.84 8.19 2.52 10.29s4.34 3.15 7.98 3.15c4.2 0 7.14-1.33 8.82-3.99 1.68-2.66 2.52-7.21 2.52-13.65l3.78 24.37h-5.04c-.84 4.76-2.94 8.97-6.3 12.6-3.36 3.64-8.13 5.46-14.28 5.46-8.13 0-14.07-2.38-17.85-7.14Zm9.03 80.23c-5.04-2.8-8.55-6.65-10.5-11.55-1.96-4.9-2.94-10.71-2.94-17.43v-30.67h22.26v30.67c0 4.76.77 8.19 2.31 10.29 1.54 2.1 4.41 3.15 8.61 3.15s7.07-1.05 8.61-3.15c1.54-2.1 2.31-5.53 2.31-10.29V219.03H321v148.71c0 11.49-2.67 20.37-7.98 26.67-5.32 6.3-14.14 9.45-26.46 9.45-8.13 0-14.7-1.4-19.74-4.2Zm20.16-180.63h25.2v22.68h-25.2v-22.68ZM350.2 393.15c-5.46-6.3-8.19-15.05-8.19-26.25V139.64c0-11.48 2.73-20.37 8.19-26.67 5.46-6.3 14.35-9.45 26.68-9.45s20.79 3.15 26.25 9.45c5.46 6.3 8.19 15.19 8.19 26.67V366.9c0 11.2-2.73 19.95-8.19 26.25-5.46 6.3-14.22 9.45-26.25 9.45s-21.21-3.15-26.68-9.45Zm35.08-15.12c1.68-2.1 2.52-5.39 2.52-9.87V138.38c0-4.76-.77-8.19-2.31-10.29-1.54-2.1-4.41-3.15-8.61-3.15s-7.14 1.05-8.82 3.15c-1.68 2.1-2.52 5.53-2.52 10.29v229.78c0 4.48.77 7.77 2.31 9.87 1.54 2.1 4.41 3.15 8.61 3.15s7.14-1.05 8.82-3.15Z"/></svg>